<svg width="70" height="70" viewBox="0 0 70 70" fill="none" xmlns="http://www.w3.org/2000/svg">
<path d="M0 47.5002L22.4997 70L28.949 35.6064C29.1128 34.7329 28.835 33.8348 28.2066 33.2064L10.3197 15.32C8.78875 13.7891 6.16875 14.5997 5.76977 16.7276L0 47.5002Z" fill="#FBBC05"/>
<path d="M22.5007 70L0.000976562 47.5002L34.3941 41.0515C35.2675 40.8878 36.1656 41.1656 36.794 41.794L54.6808 59.6803C56.2117 61.2112 55.4012 63.8313 53.2732 64.2302L22.5007 70Z" fill="#34A853"/>
<path d="M47.5007 0L70.0011 22.5004L35.6074 28.9491C34.7339 29.1128 33.8359 28.835 33.2075 28.2066L15.3211 10.3202C13.7902 8.78932 14.6007 6.16932 16.7287 5.77029L47.5007 0Z" fill="#EA4335"/>
<path d="M41.0522 34.3943C40.8885 35.2678 41.1663 36.1658 41.7947 36.7942L59.681 54.6805C61.2119 56.2115 63.8319 55.4009 64.2309 53.2729L70.0007 22.5004L47.5009 0.000656128L41.0522 34.3943Z" fill="#4285F4"/>
</svg>
